<svg width="326" height="1176" viewBox="0 0 326 1176" fill="none" xmlns="http://www.w3.org/2000/svg">
<g clip-path="url(#clip0)">
<g clip-path="url(#clip1)">
<path d="M-790.162 1214.72C-795.716 1466.28 -596.328 1674.71 -344.816 1680.26C-93.3041 1685.82 115.087 1486.39 120.642 1234.83C126.196 983.269 -73.1927 774.837 -324.704 769.284C-576.216 763.733 -784.608 963.161 -790.162 1214.72Z" fill="#1ED760"/>
<path d="M3.42935 1201.7C1.79248 1275.84 60.5594 1337.27 134.689 1338.91C208.82 1340.55 270.241 1281.77 271.878 1207.63C273.515 1133.48 214.748 1072.05 140.618 1070.41C66.4879 1068.77 5.06622 1127.55 3.42935 1201.7Z" fill="#1ED760"/>
<mask id="mask0" mask-type="alpha" maskUnits="userSpaceOnUse" x="-802" y="758" width="935" height="935">
<path d="M-790.177 1215.27C-795.732 1466.83 -596.343 1675.26 -344.831 1680.82C-93.3194 1686.37 115.072 1486.94 120.627 1235.38C126.181 983.816 -73.2077 775.384 -324.719 769.833C-576.231 764.28 -784.623 963.71 -790.177 1215.27Z" fill="#1ED760"/>
</mask>
<g mask="url(#mask0)">
<path d="M3.42935 1201.7C1.79248 1275.84 60.5594 1337.27 134.689 1338.91C208.82 1340.55 270.241 1281.77 271.878 1207.63C273.515 1133.48 214.748 1072.05 140.618 1070.41C66.4879 1068.77 5.06622 1127.55 3.42935 1201.7Z" fill="#2D46B9"/>
</g>
</g>
</g>
<defs>
<clipPath id="clip0">
<rect width="326" height="1176" fill="white"/>
</clipPath>
<clipPath id="clip1">
<rect width="2870" height="2434" fill="white" transform="translate(-400.385 -361) rotate(1.4741)"/>
</clipPath>
</defs>
</svg>
