<svg width="534" height="460" viewBox="0 0 534 460" fill="none" xmlns="http://www.w3.org/2000/svg">
<path d="M0.836016 230.219C1.29733 356.443 103.996 458.394 230.22 457.932C356.444 457.471 458.394 354.772 457.933 228.548C457.472 102.325 354.773 0.373969 228.549 0.835284C102.325 1.2966 0.374702 103.995 0.836016 230.219Z" fill="#1ED760"/>
<path d="M398.714 213.446C398.85 250.649 429.119 280.697 466.322 280.561C503.525 280.425 533.574 250.156 533.438 212.954C533.302 175.751 503.033 145.702 465.83 145.838C428.627 145.974 398.578 176.243 398.714 213.446Z" fill="#1ED760"/>
<mask id="mask0" mask-type="alpha" maskUnits="userSpaceOnUse" x="0" y="1" width="458" height="458">
<path d="M0.83504 230.494C1.29635 356.718 103.995 458.669 230.219 458.208C356.443 457.746 458.393 355.048 457.932 228.824C457.471 102.6 354.772 0.64936 228.548 1.11067C102.324 1.57199 0.373725 104.271 0.83504 230.494Z" fill="#1ED760"/>
</mask>
<g mask="url(#mask0)">
<path d="M398.714 213.446C398.85 250.649 429.119 280.697 466.322 280.561C503.525 280.425 533.574 250.156 533.438 212.954C533.302 175.751 503.033 145.702 465.83 145.838C428.627 145.974 398.578 176.243 398.714 213.446Z" fill="#2D46B9"/>
</g>
</svg>
